PathFileType	4	(X/Y/Z)	C:\Users\WrightLab\Desktop\Jo\P5V47.trc
DataRate	CameraRate	NumFrames	NumMarkers	Units	OrigDataRate	OrigDataStartFrame	OrigNumFrames
100.00	100.00	       19	19	mm	100.00	335	       892
Frame#	Time	Headset_Front			Headset_Back			Headset_Left			Headset_Right			Left_Shoulder			Right_Shoulder			Sternum			C7			Left Elbow			Right Elbow			Left Wrist			Right Wrist			Left ASIS			Right ASIS			S2			Left Knee			Right Knee			Left Ankle			Right Ankle			
		X1	Y1	Z1	X2	Y2	Z2	X3	Y3	Z3	X4	Y4	Z4	X5	Y5	Z5	X6	Y6	Z6	X7	Y7	Z7	X8	Y8	Z8	X9	Y9	Z9	X10	Y10	Z10	X11	Y11	Z11	X12	Y12	Z12	X13	Y13	Z13	X14	Y14	Z14	X15	Y15	Z15	X16	Y16	Z16	X17	Y17	Z17	X18	Y18	Z18	X19	Y19	Z19	

335	3.340	-617.99213	1495.60107	-846.66846	-391.02484	942.83105	-1215.47998							-459.58557	1495.28320	-1132.03967	-678.34607	1417.59241	-1051.31873	-499.02490	1273.64270	-951.16541	-511.81100	1417.84424	-765.54492				-754.94482	1134.18567	-1090.70789	-350.25687	1007.09174	-873.41406	-763.93054	979.60889	-900.79071	-677.59015	475.42343	-1072.73267	-663.14459	918.40771	-1030.40369				-305.21561	473.43262	-908.47430				-119.13177	127.48826	-1157.88770	-516.13452	1697.17432	-918.09845	
336	3.350	-622.19501	1496.23816	-843.33624	-398.22623	945.16077	-1214.29639							-465.66318	1496.08020	-1129.30383	-683.95294	1418.78711	-1048.38196	-504.28146	1273.92566	-948.47223	-515.30548	1418.40332	-763.73505				-759.89661	1135.73193	-1088.06934	-356.70743	1007.38562	-872.38483	-768.32660	979.81464	-899.11597	-683.05676	475.40045	-1073.89526	-669.86108	919.65796	-1027.83301				-314.62241	474.16003	-898.63391				-124.66721	134.86040	-1154.68958	-521.11243	1698.03125	-915.26941	
337	3.360	-626.32788	1497.08740	-840.00146	-404.84274	945.71582	-1213.24463							-471.60150	1497.42773	-1127.60291	-689.77026	1420.01172	-1045.13000	-509.25616	1274.61023	-946.49939	-517.80536	1419.34985	-760.23737				-765.70837	1136.33630	-1085.47144	-363.55045	1007.10638	-871.18408	-774.12964	980.88605	-897.28607	-687.84741	474.66229	-1076.02905	-674.46747	920.11786	-1023.90997				-324.38995	475.81030	-889.16840				-133.38998	139.46440	-1150.80518	-525.91357	1699.09949	-912.48138	
338	3.370	-630.17981	1497.78540	-836.81519	-411.51968	946.42438	-1211.48206							-477.54810	1498.33740	-1125.05920	-695.52771	1421.14636	-1042.37903	-514.03497	1275.65759	-944.72375	-521.66815	1420.62817	-758.24994				-771.55621	1137.71191	-1082.71716	-369.84543	1007.64404	-870.30304	-777.86975	980.85193	-895.33020	-691.93280	473.60065	-1078.42224	-681.07916	921.07025	-1020.92145				-334.22665	477.38266	-880.18213				-140.98312	146.29016	-1147.75439	-530.57605	1700.19165	-909.60889	
339	3.380	-633.78503	1498.80322	-833.04089										-483.31891	1499.36853	-1122.46350	-702.73987	1423.68799	-1039.41382	-518.74414	1276.08472	-941.89679	-524.57208	1421.92773	-755.55188				-776.67365	1138.81763	-1080.29028	-374.75128	1007.90436	-868.16791	-782.46906	981.57983	-893.45337	-697.30341	474.32047	-1080.04858	-685.30573	921.49390	-1017.29742				-344.50790	479.83786	-871.30505				-150.08015	150.17049	-1142.18652	-535.01794	1701.26196	-906.80188	
340	3.390	-637.42407	1499.82678	-830.15417	-425.11630	949.34692	-1208.11121							-489.14612	1500.48022	-1120.39453	-706.84125	1423.32556	-1035.23999	-522.80524	1276.42249	-939.64423	-525.49158	1422.96289	-750.72931				-782.28186	1140.16077	-1078.05969	-382.57715	1006.03711	-875.47229	-786.19623	981.86499	-891.46906	-701.09937	474.16937	-1082.00659	-690.70367	921.69287	-1014.61017				-353.55063	483.42438	-863.75354				-159.57959	155.21007	-1136.07166	-539.46930	1702.12561	-904.17853	
341	3.400	-640.84882	1500.75024	-825.89331	-431.57990	950.31708	-1207.02112							-494.97250	1501.08008	-1118.08679	-710.12555	1422.23242	-1032.82507	-528.28571	1277.19421	-937.29321	-530.49060	1424.59644	-748.96515				-787.55988	1141.42261	-1075.48291	-387.47458	1008.16144	-871.41565	-790.61011	983.86713	-888.51184	-705.54675	474.17889	-1082.65686	-695.48315	922.44196	-1011.74384				-362.61957	487.20807	-856.40643				-168.36153	159.38582	-1133.15247	-543.72833	1703.25110	-902.04388	
342	3.410	-644.24945	1501.87939	-822.06934	-437.98074	950.35168	-1203.89160							-500.55252	1501.91980	-1115.14734	-715.10718	1422.36072	-1028.71997	-532.53546	1278.20630	-935.05896							-792.61346	1141.61133	-1072.43665	-392.47125	1009.66492	-871.18372	-794.87970	984.20984	-887.05872	-709.90118	474.05048	-1083.87756	-700.50146	923.12250	-1008.73035				-372.31122	490.40176	-848.97888				-179.49013	162.43300	-1125.91724	-547.93481	1703.81909	-899.49591	
343	3.420	-647.47485	1503.10535	-818.11530	-444.76147	953.53845	-1202.94409							-506.18793	1502.59351	-1112.84631	-720.59296	1422.80078	-1024.46094	-537.15381	1278.80396	-933.13965							-798.27496	1142.81714	-1070.46765	-398.04837	1010.79254	-870.02686	-797.96619	984.39514	-883.70129	-715.68347	475.39618	-1083.54333	-703.95520	922.85974	-1005.72668				-379.77554	493.60873	-842.03058				-192.76031	166.34988	-1119.17188	-552.04065	1704.63879	-897.45917	
344	3.430	-650.76337	1503.77258	-814.27612										-511.81152	1503.10571	-1110.32495	-726.19720	1423.66650	-1021.36279	-542.66937	1279.55469	-930.67505							-803.16412	1143.31335	-1067.02905	-402.17032	1011.80127	-870.59857	-802.92712	985.32428	-881.70807	-720.13202	475.69681	-1083.53210	-709.50562	923.12225	-1004.17889				-388.01413	496.39633	-836.00244				-205.03596	168.56264	-1114.11719	-556.09155	1705.11816	-894.77679	
345	3.440	-653.87500	1504.65234	-810.23108	-427.28464	893.62311	-900.57007							-517.46527	1503.20581	-1107.16235	-730.77563	1424.10327	-1017.50793	-547.19989	1278.83337	-927.94147							-808.85406	1144.21497	-1064.38257	-407.23895	1012.68622	-870.70947	-806.39453	986.06219	-878.51715	-724.15375	476.04526	-1081.97107	-712.22571	922.28754	-1001.38617				-394.97781	497.74332	-830.32117				-217.68413	171.29527	-1105.88672	-559.97870	1705.82739	-892.64270	
346	3.450	-656.89655	1505.51147	-805.85950										-522.95679	1503.61096	-1104.53821	-736.11304	1424.45227	-1013.81049	-552.51831	1278.98804	-925.29718							-813.88220	1144.40857	-1061.42114	-410.72662	1014.72339	-869.07568	-811.21277	986.20636	-875.41241	-727.86450	475.71957	-1080.55298	-717.29773	923.23523	-999.15106				-401.60052	500.06439	-823.26617				-230.12958	174.28421	-1102.97131	-563.84613	1706.59277	-890.50128	
347	3.460	-659.86890	1506.26160	-801.78442	-441.14108	892.84436	-898.87421							-528.40912	1503.53979	-1101.71704	-739.75714	1423.30164	-1009.44843	-557.58984	1279.59790	-923.82471							-818.92535	1144.25000	-1058.03125	-415.74152	1015.85834	-866.91284	-814.42169	986.68604	-871.39764	-730.84509	474.68698	-1078.96277	-721.01123	922.43469	-997.16870				-408.45096	501.17590	-818.93317				-245.46489	175.40282	-1094.71277	-567.63092	1706.65686	-887.61871	
348	3.470	-662.83301	1507.00684	-797.19415	-444.30365	893.17346	-897.62769							-533.80536	1503.80493	-1099.02368	-744.22162	1423.53442	-1005.55011	-561.74207	1279.71899	-920.59918							-823.87164	1143.78210	-1054.31531	-418.95685	1016.55255	-865.51202	-819.38007	987.13715	-868.58759	-734.86597	474.17172	-1076.67029	-723.33594	920.67810	-993.65314				-415.42532	502.61600	-813.56903				-258.13690	176.34129	-1088.76172	-571.34436	1707.17834	-885.56635	
349	3.480	-665.71973	1507.79626	-793.19855	-450.22244	893.79596	-897.90076							-539.16840	1503.60730	-1095.89221	-749.59174	1423.33325	-1001.34473	-566.25879	1279.19287	-917.70758							-829.08051	1144.14331	-1050.38318	-423.18579	1017.77148	-862.84875	-822.62946	986.81848	-863.70081	-737.20001	473.69604	-1074.51611	-728.38446	921.10846	-991.73761				-423.23370	502.76169	-808.84216				-273.23349	176.68832	-1081.21191	-575.08484	1707.21997	-882.95013	
350	3.490	-668.56378	1508.41248	-789.21741	-451.46179	894.97516	-893.68048							-544.39032	1503.34082	-1093.11719	-753.45868	1422.64282	-997.29669	-569.85272	1279.18372	-914.68787							-833.39911	1143.52771	-1046.32971	-426.71988	1017.26422	-861.56860	-825.67145	986.77832	-859.33405	-739.13214	472.03607	-1071.73584	-730.43140	920.59100	-989.08057				-430.85629	503.30045	-805.44409				-288.21127	176.57581	-1072.69983	-578.55688	1707.51428	-879.86694	
351	3.500	-671.43134	1508.71448	-784.63293	-457.68167	893.50763	-892.42389							-549.60724	1503.02588	-1089.48706	-757.87305	1422.52954	-993.17828	-574.73486	1278.73425	-912.19019							-838.38330	1143.82092	-1042.59290	-429.70212	1018.80286	-860.10895	-829.14136	987.21826	-854.61859	-740.49127	470.94720	-1069.20349	-732.91333	919.19366	-985.92493				-438.27017	504.21274	-801.49957				-302.86166	177.06715	-1065.47437	-582.17938	1707.38269	-877.21960	
352	3.510	-674.21191	1509.25769	-780.57568	-458.79550	893.57172	-888.71796							-554.69537	1503.04395	-1086.75427	-762.67841	1422.12097	-988.86731	-577.92816	1279.00867	-908.77246							-842.51556	1143.02576	-1037.81970	-433.00015	1018.29388	-858.89282	-831.88354	986.84283	-850.56763	-741.72467	468.98190	-1065.00977	-735.30316	919.12384	-983.00433				-446.29803	504.37314	-796.08435				-317.07697	175.70074	-1057.01184	-585.74475	1707.37524	-874.59467	
353	3.520	-677.00684	1509.41809	-775.99475	-461.91382	893.23419	-885.54327							-559.73267	1502.77283	-1083.31836	-767.95874	1421.66040	-984.39471	-581.93677	1277.81128	-904.75439							-847.69861	1142.47485	-1032.86523	-436.58954	1018.52899	-855.22681	-835.11334	987.12158	-845.03796	-743.27856	467.67761	-1062.45496	-738.37982	918.53845	-980.32135				-455.29938	504.41779	-792.84082				-331.35376	173.38229	-1048.19690	-589.14093	1707.53833	-871.33710	
